<svg version="1.1" xmlns="http://www.w3.org/2000/svg" xmlns:xlink="http://www.w3.org/1999/xlink" width="292.68677" height="316.76616" viewBox="0,0,292.68677,316.76616">
  <g transform="translate(-94.42889,-21.15583)">
    <g data-paper-data="{&quot;isPaintingLayer&quot;:true}" fill-rule="nonzero" stroke-linejoin="miter" stroke-miterlimit="10" stroke-dasharray="" stroke-dashoffset="0" style="mix-blend-mode: normal">
      <path d="M365.81235,251.37013l-130.20813,75.41292l6.08383,-147.91338l121.99691,-70.57726z" data-paper-data="{&quot;index&quot;:null}" fill="#002e40" stroke="none" stroke-width="7.5" stroke-linecap="butt"/>
      <path d="M110.09205,110.11748l123.4106,68.0751l9.09849,147.75858l-131.71872,-72.74232z" fill="#005b7f" stroke="none" stroke-width="7.5" stroke-linecap="butt"/>
      <path d="M114.26213,100.83082l122.50043,-69.69962l130.76374,69.39903l-130.81924,74.3478z" fill="#0092ff" stroke="none" stroke-width="7.5" stroke-linecap="butt"/>
      <path d="M116.55899,108.40993l123.66421,67.142l121.52705,-71.09733" fill="none" stroke="#000000" stroke-width="22.5" stroke-linecap="round"/>
      <path d="M240.24545,177.73478l1.49858,146.97813" fill="none" stroke="#000000" stroke-width="22.5" stroke-linecap="round"/>
      <path d="M374.40852,107.30514c0.16927,16.60197 1.18871,116.58645 1.45772,142.97084c0.04142,4.06219 -2.59439,7.85252 -5.82994,9.64433c-12.72468,7.04678 -95.14381,52.68953 -120.53645,66.75168c-4.69067,2.59764 -10.45895,2.57711 -14.06238,0.74113c-13.39614,-6.82543 -95.86574,-48.84431 -121.85448,-62.08577c-4.9368,-2.51534 -7.86662,-7.04235 -7.90469,-10.77543c-0.12152,-11.91863 -1.09778,-107.66827 -1.43446,-140.68939c-0.07108,-6.97181 2.39231,-12.52148 6.70669,-14.88715c24.96952,-13.69135 110.51236,-60.59643 121.4058,-66.56956c3.11222,-1.7065 8.56239,-1.93433 12.78478,0.26184c14.80012,7.69793 101.5611,53.09164 123.93382,64.79792c3.35438,1.75514 5.28646,5.2167 5.33359,9.83954z" fill="none" stroke="#000000" stroke-width="22.5" stroke-linecap="round"/>
    </g>
  </g>
</svg>
